%FSLAX45Y45*%
G04 Gerber Fmt 4.5, Leading zero omitted, Abs format (unit mm)*
G04 Created by KiCad (PCBNEW (5.1.8)-1) date 2021-09-06 17:52:49*
%MOMM*%
%LPD*%
G01*
G04 APERTURE LIST*
%TA.AperFunction,Profile*%
%ADD10C,0.100000*%
%TD*%
%ADD11C,0.200000*%
%ADD12C,0.300000*%
G04 APERTURE END LIST*
D10*
X7450000Y-15000000D02*
G75*
G02*
X7000000Y-14550000I0J450000D01*
G01*
X17000000Y-14550000D02*
G75*
G02*
X16550000Y-15000000I-450000J0D01*
G01*
X16550000Y-5000000D02*
G75*
G02*
X17000000Y-5450000I0J-450000D01*
G01*
X7000000Y-5450000D02*
G75*
G02*
X7450000Y-5000000I450000J0D01*
G01*
X7000000Y-5450000D02*
X7000000Y-14550000D01*
X16550000Y-5000000D02*
X7450000Y-5000000D01*
X17000000Y-14550000D02*
X17000000Y-5450000D01*
X7450000Y-15000030D02*
X16550000Y-15000000D01*
D11*
X15215000Y-14612500D02*
X15270000Y-14667500D01*
X15270000Y-14612500D02*
X15215000Y-14667500D01*
X15615000Y-14612500D02*
X15670000Y-14667500D01*
X15670000Y-14612500D02*
X15615000Y-14667500D01*
D12*
X7281428Y-15470744D02*
X7281428Y-15170744D01*
X7352857Y-15170744D01*
X7395714Y-15185030D01*
X7424286Y-15213601D01*
X7438571Y-15242173D01*
X7452857Y-15299316D01*
X7452857Y-15342173D01*
X7438571Y-15399316D01*
X7424286Y-15427887D01*
X7395714Y-15456459D01*
X7352857Y-15470744D01*
X7281428Y-15470744D01*
X7581428Y-15470744D02*
X7581428Y-15270744D01*
X7581428Y-15327887D02*
X7595714Y-15299316D01*
X7610000Y-15285030D01*
X7638571Y-15270744D01*
X7667143Y-15270744D01*
X7767143Y-15470744D02*
X7767143Y-15270744D01*
X7767143Y-15170744D02*
X7752857Y-15185030D01*
X7767143Y-15199316D01*
X7781428Y-15185030D01*
X7767143Y-15170744D01*
X7767143Y-15199316D01*
X7952857Y-15470744D02*
X7924286Y-15456459D01*
X7910000Y-15427887D01*
X7910000Y-15170744D01*
X8110000Y-15470744D02*
X8081428Y-15456459D01*
X8067143Y-15427887D01*
X8067143Y-15170744D01*
X8452857Y-15470744D02*
X8452857Y-15170744D01*
X8552857Y-15385030D01*
X8652857Y-15170744D01*
X8652857Y-15470744D01*
X8924286Y-15470744D02*
X8924286Y-15313601D01*
X8910000Y-15285030D01*
X8881428Y-15270744D01*
X8824286Y-15270744D01*
X8795714Y-15285030D01*
X8924286Y-15456459D02*
X8895714Y-15470744D01*
X8824286Y-15470744D01*
X8795714Y-15456459D01*
X8781428Y-15427887D01*
X8781428Y-15399316D01*
X8795714Y-15370744D01*
X8824286Y-15356459D01*
X8895714Y-15356459D01*
X8924286Y-15342173D01*
X9067143Y-15270744D02*
X9067143Y-15570744D01*
X9067143Y-15285030D02*
X9095714Y-15270744D01*
X9152857Y-15270744D01*
X9181428Y-15285030D01*
X9195714Y-15299316D01*
X9210000Y-15327887D01*
X9210000Y-15413601D01*
X9195714Y-15442173D01*
X9181428Y-15456459D01*
X9152857Y-15470744D01*
X9095714Y-15470744D01*
X9067143Y-15456459D01*
X9338571Y-15442173D02*
X9352857Y-15456459D01*
X9338571Y-15470744D01*
X9324286Y-15456459D01*
X9338571Y-15442173D01*
X9338571Y-15470744D01*
X9338571Y-15285030D02*
X9352857Y-15299316D01*
X9338571Y-15313601D01*
X9324286Y-15299316D01*
X9338571Y-15285030D01*
X9338571Y-15313601D01*
X6940000Y-15937530D02*
X6995000Y-15992530D01*
X6995000Y-15937530D02*
X6940000Y-15992530D01*
X7338571Y-15800744D02*
X7367143Y-15800744D01*
X7395714Y-15815030D01*
X7410000Y-15829316D01*
X7424286Y-15857887D01*
X7438571Y-15915030D01*
X7438571Y-15986459D01*
X7424286Y-16043601D01*
X7410000Y-16072173D01*
X7395714Y-16086459D01*
X7367143Y-16100744D01*
X7338571Y-16100744D01*
X7310000Y-16086459D01*
X7295714Y-16072173D01*
X7281428Y-16043601D01*
X7267143Y-15986459D01*
X7267143Y-15915030D01*
X7281428Y-15857887D01*
X7295714Y-15829316D01*
X7310000Y-15815030D01*
X7338571Y-15800744D01*
X7567143Y-16072173D02*
X7581428Y-16086459D01*
X7567143Y-16100744D01*
X7552857Y-16086459D01*
X7567143Y-16072173D01*
X7567143Y-16100744D01*
X7852857Y-15800744D02*
X7710000Y-15800744D01*
X7695714Y-15943601D01*
X7710000Y-15929316D01*
X7738571Y-15915030D01*
X7810000Y-15915030D01*
X7838571Y-15929316D01*
X7852857Y-15943601D01*
X7867143Y-15972173D01*
X7867143Y-16043601D01*
X7852857Y-16072173D01*
X7838571Y-16086459D01*
X7810000Y-16100744D01*
X7738571Y-16100744D01*
X7710000Y-16086459D01*
X7695714Y-16072173D01*
X8138571Y-15800744D02*
X7995714Y-15800744D01*
X7981428Y-15943601D01*
X7995714Y-15929316D01*
X8024286Y-15915030D01*
X8095714Y-15915030D01*
X8124286Y-15929316D01*
X8138571Y-15943601D01*
X8152857Y-15972173D01*
X8152857Y-16043601D01*
X8138571Y-16072173D01*
X8124286Y-16086459D01*
X8095714Y-16100744D01*
X8024286Y-16100744D01*
X7995714Y-16086459D01*
X7981428Y-16072173D01*
X8281428Y-16100744D02*
X8281428Y-15900744D01*
X8281428Y-15929316D02*
X8295714Y-15915030D01*
X8324286Y-15900744D01*
X8367143Y-15900744D01*
X8395714Y-15915030D01*
X8410000Y-15943601D01*
X8410000Y-16100744D01*
X8410000Y-15943601D02*
X8424286Y-15915030D01*
X8452857Y-15900744D01*
X8495714Y-15900744D01*
X8524286Y-15915030D01*
X8538571Y-15943601D01*
X8538571Y-16100744D01*
X8681428Y-16100744D02*
X8681428Y-15900744D01*
X8681428Y-15929316D02*
X8695714Y-15915030D01*
X8724286Y-15900744D01*
X8767143Y-15900744D01*
X8795714Y-15915030D01*
X8810000Y-15943601D01*
X8810000Y-16100744D01*
X8810000Y-15943601D02*
X8824286Y-15915030D01*
X8852857Y-15900744D01*
X8895714Y-15900744D01*
X8924286Y-15915030D01*
X8938571Y-15943601D01*
X8938571Y-16100744D01*
X9524286Y-15786459D02*
X9267143Y-16172173D01*
X9910000Y-15800744D02*
X9938571Y-15800744D01*
X9967143Y-15815030D01*
X9981428Y-15829316D01*
X9995714Y-15857887D01*
X10010000Y-15915030D01*
X10010000Y-15986459D01*
X9995714Y-16043601D01*
X9981428Y-16072173D01*
X9967143Y-16086459D01*
X9938571Y-16100744D01*
X9910000Y-16100744D01*
X9881428Y-16086459D01*
X9867143Y-16072173D01*
X9852857Y-16043601D01*
X9838571Y-15986459D01*
X9838571Y-15915030D01*
X9852857Y-15857887D01*
X9867143Y-15829316D01*
X9881428Y-15815030D01*
X9910000Y-15800744D01*
X10138571Y-16072173D02*
X10152857Y-16086459D01*
X10138571Y-16100744D01*
X10124286Y-16086459D01*
X10138571Y-16072173D01*
X10138571Y-16100744D01*
X10338571Y-15800744D02*
X10367143Y-15800744D01*
X10395714Y-15815030D01*
X10410000Y-15829316D01*
X10424286Y-15857887D01*
X10438571Y-15915030D01*
X10438571Y-15986459D01*
X10424286Y-16043601D01*
X10410000Y-16072173D01*
X10395714Y-16086459D01*
X10367143Y-16100744D01*
X10338571Y-16100744D01*
X10310000Y-16086459D01*
X10295714Y-16072173D01*
X10281428Y-16043601D01*
X10267143Y-15986459D01*
X10267143Y-15915030D01*
X10281428Y-15857887D01*
X10295714Y-15829316D01*
X10310000Y-15815030D01*
X10338571Y-15800744D01*
X10552857Y-15829316D02*
X10567143Y-15815030D01*
X10595714Y-15800744D01*
X10667143Y-15800744D01*
X10695714Y-15815030D01*
X10710000Y-15829316D01*
X10724286Y-15857887D01*
X10724286Y-15886459D01*
X10710000Y-15929316D01*
X10538571Y-16100744D01*
X10724286Y-16100744D01*
X10838571Y-15829316D02*
X10852857Y-15815030D01*
X10881428Y-15800744D01*
X10952857Y-15800744D01*
X10981428Y-15815030D01*
X10995714Y-15829316D01*
X11010000Y-15857887D01*
X11010000Y-15886459D01*
X10995714Y-15929316D01*
X10824286Y-16100744D01*
X11010000Y-16100744D01*
X11124286Y-15800744D02*
X11124286Y-15857887D01*
X11238571Y-15800744D02*
X11238571Y-15857887D01*
X11681428Y-16215030D02*
X11667143Y-16200744D01*
X11638571Y-16157887D01*
X11624286Y-16129316D01*
X11610000Y-16086459D01*
X11595714Y-16015030D01*
X11595714Y-15957887D01*
X11610000Y-15886459D01*
X11624286Y-15843601D01*
X11638571Y-15815030D01*
X11667143Y-15772173D01*
X11681428Y-15757887D01*
X11781428Y-15829316D02*
X11795714Y-15815030D01*
X11824286Y-15800744D01*
X11895714Y-15800744D01*
X11924286Y-15815030D01*
X11938571Y-15829316D01*
X11952857Y-15857887D01*
X11952857Y-15886459D01*
X11938571Y-15929316D01*
X11767143Y-16100744D01*
X11952857Y-16100744D01*
X12310000Y-16100744D02*
X12310000Y-15800744D01*
X12438571Y-16100744D02*
X12438571Y-15943601D01*
X12424286Y-15915030D01*
X12395714Y-15900744D01*
X12352857Y-15900744D01*
X12324286Y-15915030D01*
X12310000Y-15929316D01*
X12624286Y-16100744D02*
X12595714Y-16086459D01*
X12581428Y-16072173D01*
X12567143Y-16043601D01*
X12567143Y-15957887D01*
X12581428Y-15929316D01*
X12595714Y-15915030D01*
X12624286Y-15900744D01*
X12667143Y-15900744D01*
X12695714Y-15915030D01*
X12710000Y-15929316D01*
X12724286Y-15957887D01*
X12724286Y-16043601D01*
X12710000Y-16072173D01*
X12695714Y-16086459D01*
X12667143Y-16100744D01*
X12624286Y-16100744D01*
X12895714Y-16100744D02*
X12867143Y-16086459D01*
X12852857Y-16057887D01*
X12852857Y-15800744D01*
X13124286Y-16086459D02*
X13095714Y-16100744D01*
X13038571Y-16100744D01*
X13010000Y-16086459D01*
X12995714Y-16057887D01*
X12995714Y-15943601D01*
X13010000Y-15915030D01*
X13038571Y-15900744D01*
X13095714Y-15900744D01*
X13124286Y-15915030D01*
X13138571Y-15943601D01*
X13138571Y-15972173D01*
X12995714Y-16000744D01*
X13252857Y-16086459D02*
X13281428Y-16100744D01*
X13338571Y-16100744D01*
X13367143Y-16086459D01*
X13381428Y-16057887D01*
X13381428Y-16043601D01*
X13367143Y-16015030D01*
X13338571Y-16000744D01*
X13295714Y-16000744D01*
X13267143Y-15986459D01*
X13252857Y-15957887D01*
X13252857Y-15943601D01*
X13267143Y-15915030D01*
X13295714Y-15900744D01*
X13338571Y-15900744D01*
X13367143Y-15915030D01*
X13481428Y-16215030D02*
X13495714Y-16200744D01*
X13524286Y-16157887D01*
X13538571Y-16129316D01*
X13552857Y-16086459D01*
X13567143Y-16015030D01*
X13567143Y-15957887D01*
X13552857Y-15886459D01*
X13538571Y-15843601D01*
X13524286Y-15815030D01*
X13495714Y-15772173D01*
X13481428Y-15757887D01*
X14024286Y-16215030D02*
X14010000Y-16200744D01*
X13981428Y-16157887D01*
X13967143Y-16129316D01*
X13952857Y-16086459D01*
X13938571Y-16015030D01*
X13938571Y-15957887D01*
X13952857Y-15886459D01*
X13967143Y-15843601D01*
X13981428Y-15815030D01*
X14010000Y-15772173D01*
X14024286Y-15757887D01*
X14138571Y-15900744D02*
X14138571Y-16100744D01*
X14138571Y-15929316D02*
X14152857Y-15915030D01*
X14181428Y-15900744D01*
X14224286Y-15900744D01*
X14252857Y-15915030D01*
X14267143Y-15943601D01*
X14267143Y-16100744D01*
X14452857Y-16100744D02*
X14424286Y-16086459D01*
X14410000Y-16072173D01*
X14395714Y-16043601D01*
X14395714Y-15957887D01*
X14410000Y-15929316D01*
X14424286Y-15915030D01*
X14452857Y-15900744D01*
X14495714Y-15900744D01*
X14524286Y-15915030D01*
X14538571Y-15929316D01*
X14552857Y-15957887D01*
X14552857Y-16043601D01*
X14538571Y-16072173D01*
X14524286Y-16086459D01*
X14495714Y-16100744D01*
X14452857Y-16100744D01*
X14638571Y-15900744D02*
X14752857Y-15900744D01*
X14681428Y-15800744D02*
X14681428Y-16057887D01*
X14695714Y-16086459D01*
X14724286Y-16100744D01*
X14752857Y-16100744D01*
X15081428Y-15900744D02*
X15081428Y-16200744D01*
X15081428Y-15915030D02*
X15110000Y-15900744D01*
X15167143Y-15900744D01*
X15195714Y-15915030D01*
X15210000Y-15929316D01*
X15224286Y-15957887D01*
X15224286Y-16043601D01*
X15210000Y-16072173D01*
X15195714Y-16086459D01*
X15167143Y-16100744D01*
X15110000Y-16100744D01*
X15081428Y-16086459D01*
X15395714Y-16100744D02*
X15367143Y-16086459D01*
X15352857Y-16057887D01*
X15352857Y-15800744D01*
X15638571Y-16100744D02*
X15638571Y-15943601D01*
X15624286Y-15915030D01*
X15595714Y-15900744D01*
X15538571Y-15900744D01*
X15510000Y-15915030D01*
X15638571Y-16086459D02*
X15610000Y-16100744D01*
X15538571Y-16100744D01*
X15510000Y-16086459D01*
X15495714Y-16057887D01*
X15495714Y-16029316D01*
X15510000Y-16000744D01*
X15538571Y-15986459D01*
X15610000Y-15986459D01*
X15638571Y-15972173D01*
X15738571Y-15900744D02*
X15852857Y-15900744D01*
X15781428Y-15800744D02*
X15781428Y-16057887D01*
X15795714Y-16086459D01*
X15824286Y-16100744D01*
X15852857Y-16100744D01*
X16067143Y-16086459D02*
X16038571Y-16100744D01*
X15981428Y-16100744D01*
X15952857Y-16086459D01*
X15938571Y-16057887D01*
X15938571Y-15943601D01*
X15952857Y-15915030D01*
X15981428Y-15900744D01*
X16038571Y-15900744D01*
X16067143Y-15915030D01*
X16081428Y-15943601D01*
X16081428Y-15972173D01*
X15938571Y-16000744D01*
X16338571Y-16100744D02*
X16338571Y-15800744D01*
X16338571Y-16086459D02*
X16310000Y-16100744D01*
X16252857Y-16100744D01*
X16224286Y-16086459D01*
X16210000Y-16072173D01*
X16195714Y-16043601D01*
X16195714Y-15957887D01*
X16210000Y-15929316D01*
X16224286Y-15915030D01*
X16252857Y-15900744D01*
X16310000Y-15900744D01*
X16338571Y-15915030D01*
X16452857Y-16215030D02*
X16467143Y-16200744D01*
X16495714Y-16157887D01*
X16510000Y-16129316D01*
X16524286Y-16086459D01*
X16538571Y-16015030D01*
X16538571Y-15957887D01*
X16524286Y-15886459D01*
X16510000Y-15843601D01*
X16495714Y-15815030D01*
X16467143Y-15772173D01*
X16452857Y-15757887D01*
M02*
