M48
; DRILL file {KiCad (5.1.8)-1} date 07/13/21 16:05:33
; FORMAT={-:-/ absolute / metric / decimal}
; #@! TF.CreationDate,2021-07-13T16:05:33-03:00
; #@! TF.GenerationSoftware,Kicad,Pcbnew,(5.1.8)-1
; #@! TF.FileFunction,Plated,1,4,PTH
FMAT,2
METRIC
T1C0.300
T2C0.400
T3C0.500
T4C0.650
T5C1.000
T6C3.200
%
G90
G05
T1
X73.46Y-126.886
X73.55Y-73.65
X73.55Y-79.05
X73.6Y-133.998
X73.6Y-139.434
X73.6Y-87.3
X73.6Y-92.7
X75.365Y-123.267
X77.143Y-128.194
X77.562Y-137.961
X78.38Y-134.659
X79.34Y-138.774
X80.153Y-135.522
X82.388Y-128.258
X82.388Y-133.948
X83.252Y-130.036
X83.252Y-132.17
X84.522Y-122.416
X84.522Y-123.534
X84.522Y-124.651
X84.623Y-137.554
X84.623Y-139.18
X85.69Y-130.036
X86.554Y-128.258
X86.554Y-132.982
X86.554Y-133.948
X90.059Y-122.365
X91.786Y-131.306
X92.751Y-127.445
X93.592Y-124.245
X93.767Y-132.881
X95.393Y-125.108
X95.393Y-127.445
X95.85Y-133.744
X95.85Y-136.792
X95.85Y-137.808
X97.628Y-138.672
X98.453Y-131.928
X98.453Y-133.128
X98.453Y-134.328
X98.542Y-137.148
X98.542Y-138.164
X99.101Y-125.108
X99.101Y-127.445
X99.254Y-128.868
X99.653Y-131.928
X99.653Y-133.128
X99.653Y-134.328
X100.32Y-139.028
X100.853Y-131.928
X100.853Y-133.128
X100.853Y-134.328
X101.692Y-125.108
X101.692Y-127.445
X102.2Y-125.921
X102.487Y-135.591
X102.505Y-136.437
X102.81Y-129.833
X103.114Y-130.8
X103.114Y-132.332
X103.165Y-134.557
X103.216Y-128.004
X103.674Y-131.621
X103.927Y-132.82
X104.588Y-133.49
X104.74Y-140.602
X104.803Y-132.424
X105.4Y-135.472
X105.502Y-139.383
X106.887Y-128.969
X107.483Y-131.408
X107.839Y-137.91
X108.971Y-134.567
X109.414Y-138.012
X109.566Y-129.02
X109.668Y-140.552
X110.328Y-131.179
X110.531Y-130.341
X110.836Y-104.585
X111.471Y-133.338
X111.954Y-136.589
X112.411Y-140.247
X112.411Y-143.244
X112.614Y-106.262
X113.274Y-127.191
X113.325Y-133.592
X113.833Y-140.247
X113.833Y-143.193
X113.986Y-110.275
X114.189Y-136.488
X114.24Y-138.316
X114.798Y-129.172
X114.798Y-130.138
X115.103Y-126.328
X115.103Y-127.496
X115.205Y-108.598
X115.205Y-140.247
X115.205Y-143.244
X115.51Y-123.737
X115.814Y-137.605
X115.902Y-133.302
X116.479Y-136.872
X116.576Y-139.688
X116.576Y-143.193
X116.678Y-112.713
X117.034Y-116.879
X117.237Y-127.293
X117.288Y-113.424
X117.846Y-115.66
X118.05Y-125.921
X118.354Y-110.021
X118.456Y-131.369
X118.456Y-132.369
X118.456Y-133.369
X118.456Y-134.369
X118.507Y-137.148
X118.913Y-104.128
X119.269Y-113.78
X119.456Y-131.369
X119.456Y-132.369
X119.456Y-133.369
X119.456Y-134.369
X120.082Y-136.843
X120.336Y-111.342
X120.386Y-139.526
X120.456Y-131.369
X120.456Y-132.369
X120.456Y-133.369
X120.456Y-134.369
X120.742Y-136.843
X121.402Y-126.175
X121.402Y-136.843
X121.402Y-139.526
X121.453Y-127.344
X121.456Y-131.369
X121.456Y-132.369
X121.456Y-133.369
X121.456Y-134.369
X121.504Y-110.122
X121.504Y-112.408
X121.519Y-111.329
X121.961Y-123.737
X122.164Y-126.734
X122.418Y-139.526
X122.723Y-111.342
X122.926Y-117.844
X123.18Y-108.446
X123.638Y-103.163
X123.638Y-113.78
X123.688Y-108.903
X124.146Y-134.862
X124.196Y-109.36
X124.196Y-133.83
X124.475Y-128.075
X124.5Y-126.7
X124.603Y-102.35
X124.908Y-106.058
X125.212Y-112.307
X125.365Y-114.796
X125.67Y-106.82
X126.381Y-107.532
X126.787Y-121.502
X126.787Y-133.846
X127.6Y-133.338
X128.108Y-112.307
X128.159Y-137.808
X128.514Y-131.154
X129.276Y-131.763
X129.327Y-133.033
X130.089Y-125.413
X130.14Y-121.095
X130.394Y-101.207
X130.75Y-95.695
X131.156Y-98.896
X131.867Y-121.908
X132.07Y-128.918
X132.426Y-116.32
X132.553Y-124.321
X132.553Y-125.421
X132.553Y-126.521
X132.629Y-119.52
X132.731Y-95.543
X132.731Y-128.918
X132.731Y-131.509
X133.239Y-138.824
X133.391Y-131.509
X133.391Y-140.247
X133.544Y-106.058
X133.653Y-124.321
X133.653Y-125.421
X133.653Y-126.521
X133.747Y-95.492
X133.747Y-132.586
X134.052Y-128.918
X134.052Y-131.509
X134.56Y-105.855
X134.661Y-104.89
X134.712Y-95.543
X134.712Y-136.64
X134.753Y-124.321
X134.753Y-125.421
X134.753Y-126.521
X135.22Y-139.434
X135.728Y-138.113
X135.88Y-104.89
X135.931Y-103.722
X136.033Y-135.878
X136.236Y-116.269
X136.693Y-116.98
X137.15Y-103.671
X137.506Y-131.408
X137.658Y-139.688
X137.912Y-132.586
X138.827Y-103.01
X138.827Y-107.633
X139.601Y-114.161
X140.198Y-139.942
X140.503Y-129.833
X140.554Y-95.365
X140.681Y-98.794
X140.808Y-100.191
X140.96Y-134.71
X141.38Y-114.986
X141.443Y-107.684
X141.443Y-115.939
X141.468Y-102.706
X141.824Y-98.667
X142.129Y-132.586
X142.332Y-97.905
X142.992Y-120.892
X143.348Y-97.651
X143.379Y-96.579
X143.45Y-119.825
X144.046Y-107.62
X144.046Y-114.923
X144.262Y-129.985
X144.491Y-101.969
X144.526Y-127.754
X144.567Y-109.513
X144.745Y-96.635
X144.77Y-110.63
X144.77Y-113.424
X145.127Y-131.599
X145.253Y-102.731
X145.38Y-118.161
X145.482Y-129.985
X145.629Y-120.76
X145.904Y-121.806
X146.142Y-86.856
X146.142Y-101.969
X146.904Y-91.987
X146.955Y-136.284
X147.006Y-121.146
X147.615Y-122.111
X147.666Y-94.087
X147.666Y-96.0
X148.377Y-120.892
X148.784Y-132.576
X149.063Y-94.095
X149.088Y-127.648
X149.19Y-121.146
X149.698Y-121.959
X149.987Y-92.955
X150.079Y-95.746
X151.273Y-94.019
X151.285Y-96.635
X151.666Y-99.239
X151.857Y-111.494
X151.921Y-118.161
X151.984Y-123.381
X152.047Y-120.765
X153.0Y-115.558
X153.127Y-110.224
X153.135Y-112.172
X154.524Y-111.621
X154.93Y-114.694
X155.286Y-137.605
X155.286Y-142.177
X155.413Y-112.51
X156.251Y-94.019
X156.302Y-96.635
X156.305Y-114.888
X156.429Y-113.018
X156.672Y-99.226
X156.937Y-118.161
X157.254Y-120.765
X157.267Y-123.381
X157.521Y-129.045
X157.572Y-112.891
X157.978Y-117.641
X158.461Y-110.859
X158.588Y-109.843
X158.69Y-129.071
X159.248Y-135.065
X159.248Y-141.517
X159.604Y-109.843
X159.756Y-116.625
X159.858Y-87.491
X159.858Y-108.827
X160.188Y-128.233
X160.493Y-88.38
X160.493Y-129.528
X160.874Y-106.033
X161.001Y-105.017
X161.001Y-108.827
X161.001Y-112.637
X161.244Y-126.967
X161.488Y-128.202
X161.534Y-126.074
X161.636Y-106.922
X161.636Y-107.938
X161.636Y-111.875
X161.89Y-103.62
X162.017Y-104.89
X162.525Y-120.765
X162.652Y-102.858
X162.941Y-100.315
X162.969Y-106.795
X162.969Y-111.303
X163.617Y-125.413
X164.379Y-129.833
X165.065Y-99.175
X165.09Y-121.248
X165.573Y-106.477
X165.573Y-110.986
X165.954Y-103.747
X165.954Y-130.696
X166.614Y-121.146
X166.843Y-103.239
X167.859Y-98.286
X167.859Y-102.985
X167.859Y-105.652
X167.859Y-111.748
X167.986Y-102.096
T2
X71.479Y-119.558
X71.479Y-122.898
X71.479Y-126.238
X71.479Y-129.578
X71.479Y-132.466
X71.593Y-140.983
X74.053Y-119.558
X77.28Y-141.01
X77.593Y-119.558
X80.25Y-144.0
X81.133Y-119.558
X81.88Y-100.445
X81.88Y-102.645
X81.88Y-104.845
X81.88Y-107.045
X81.88Y-109.245
X83.25Y-147.0
X83.88Y-100.445
X83.88Y-102.645
X83.88Y-104.845
X83.88Y-107.045
X83.88Y-109.245
X84.673Y-119.558
X85.563Y-104.845
X85.88Y-100.445
X85.88Y-102.645
X85.88Y-107.045
X85.88Y-109.245
X86.744Y-148.375
X87.88Y-100.445
X87.88Y-102.35
X87.88Y-107.557
X87.88Y-109.245
X88.213Y-119.558
X89.881Y-104.845
X91.291Y-148.375
X91.684Y-97.981
X91.754Y-119.558
X92.497Y-109.36
X93.615Y-109.36
X94.732Y-109.36
X94.783Y-96.61
X95.293Y-119.558
X95.799Y-148.375
X96.231Y-116.955
X96.231Y-117.895
X97.171Y-117.895
X98.834Y-119.558
X99.101Y-113.628
X99.101Y-116.93
X99.711Y-104.941
X100.638Y-148.375
X102.373Y-119.558
X103.5Y-106.0
X103.5Y-110.5
X104.0Y-113.5
X104.88Y-148.375
X105.913Y-119.558
X108.017Y-108.09
X108.017Y-108.979
X108.982Y-108.979
X109.096Y-148.375
X109.453Y-119.558
X111.039Y-108.09
X112.5Y-116.5
X112.993Y-119.558
X113.516Y-148.375
X116.533Y-119.558
X117.237Y-148.375
X120.073Y-119.558
X121.669Y-148.375
X126.254Y-148.375
X131.245Y-148.375
X131.283Y-132.386
X131.308Y-135.776
X131.308Y-140.856
X133.95Y-148.578
X134.852Y-93.663
X134.852Y-98.743
X138.878Y-148.324
X146.65Y-148.527
X148.428Y-148.527
X152.644Y-143.955
X156.302Y-143.955
X160.366Y-148.476
X162.673Y-139.942
T3
X72.1Y-145.5
X72.803Y-143.803
X72.803Y-147.197
X74.5Y-143.1
X74.5Y-147.9
X76.197Y-143.803
X76.197Y-147.197
X76.9Y-145.5
X163.1Y-145.5
X163.803Y-143.803
X163.803Y-147.197
X165.5Y-143.1
X165.5Y-147.9
X167.197Y-143.803
X167.197Y-147.197
X167.9Y-145.5
X72.1Y-54.5
X72.803Y-52.803
X72.803Y-56.197
X74.5Y-52.1
X74.5Y-56.9
X76.197Y-52.803
X76.197Y-56.197
X76.9Y-54.5
X163.1Y-54.5
X163.803Y-52.803
X163.803Y-56.197
X165.5Y-52.1
X165.5Y-56.9
X167.197Y-52.803
X167.197Y-56.197
X167.9Y-54.5
T4
X124.3Y-123.6
X125.57Y-123.6
X127.6Y-127.7
X127.6Y-128.97
T5
X164.049Y-71.997
X164.049Y-74.537
X164.049Y-77.077
X164.049Y-79.617
X164.049Y-82.157
X164.049Y-84.697
X114.265Y-76.95
X114.265Y-79.49
X114.265Y-82.03
X114.265Y-84.57
X114.265Y-87.11
X114.265Y-89.65
X116.805Y-76.95
X116.805Y-79.49
X116.805Y-82.03
X116.805Y-84.57
X116.805Y-87.11
X116.805Y-89.65
X145.736Y-89.345
X148.276Y-89.345
X76.546Y-101.08
X76.546Y-103.62
X76.546Y-106.16
X76.546Y-108.7
X149.825Y-71.87
X149.825Y-74.41
X149.825Y-76.95
X149.825Y-79.49
X149.825Y-82.03
X149.825Y-84.57
X137.036Y-93.663
X137.036Y-96.203
X137.036Y-98.743
X143.856Y-66.917
X143.856Y-69.457
X143.856Y-71.997
X143.856Y-74.537
X143.856Y-77.077
X143.856Y-79.617
X143.856Y-82.157
X143.856Y-84.697
X105.807Y-114.745
X108.347Y-114.745
X110.887Y-114.745
X155.667Y-66.917
X155.667Y-69.457
X155.667Y-71.997
X155.667Y-74.537
X155.667Y-77.077
X155.667Y-79.617
X155.667Y-82.157
X155.667Y-84.697
X158.207Y-66.917
X158.207Y-69.457
X158.207Y-71.997
X158.207Y-74.537
X158.207Y-77.077
X158.207Y-79.617
X158.207Y-82.157
X158.207Y-84.697
X105.5Y-105.42
X105.5Y-107.96
X105.5Y-110.5
X127.6Y-94.476
X127.6Y-97.016
X127.6Y-99.556
X127.6Y-102.096
T6
X74.5Y-145.5
X165.5Y-145.5
X74.5Y-54.5
X165.5Y-54.5
T0
M30
