G04 #@! TF.GenerationSoftware,KiCad,Pcbnew,(5.1.8)-1*
G04 #@! TF.CreationDate,2021-09-06T17:51:37-03:00*
G04 #@! TF.ProjectId,Proyecto_Final,50726f79-6563-4746-9f5f-46696e616c2e,rev?*
G04 #@! TF.SameCoordinates,Original*
G04 #@! TF.FileFunction,Legend,Bot*
G04 #@! TF.FilePolarity,Positive*
%FSLAX46Y46*%
G04 Gerber Fmt 4.6, Leading zero omitted, Abs format (unit mm)*
G04 Created by KiCad (PCBNEW (5.1.8)-1) date 2021-09-06 17:51:37*
%MOMM*%
%LPD*%
G01*
G04 APERTURE LIST*
%ADD10C,0.200000*%
%ADD11C,0.100000*%
%ADD12R,3.500000X1.500000*%
%ADD13O,1.700000X1.700000*%
%ADD14R,1.700000X1.700000*%
%ADD15C,0.550000*%
%ADD16C,6.400000*%
%ADD17C,0.800000*%
%ADD18O,1.000000X1.000000*%
%ADD19R,1.000000X1.000000*%
G04 APERTURE END LIST*
D10*
X96528571Y-53978571D02*
X96528571Y-55050000D01*
X96600000Y-55264285D01*
X96742857Y-55407142D01*
X96957142Y-55478571D01*
X97100000Y-55478571D01*
X95100000Y-55478571D02*
X95814285Y-55478571D01*
X95814285Y-53978571D01*
X93742857Y-55335714D02*
X93814285Y-55407142D01*
X94028571Y-55478571D01*
X94171428Y-55478571D01*
X94385714Y-55407142D01*
X94528571Y-55264285D01*
X94600000Y-55121428D01*
X94671428Y-54835714D01*
X94671428Y-54621428D01*
X94600000Y-54335714D01*
X94528571Y-54192857D01*
X94385714Y-54050000D01*
X94171428Y-53978571D01*
X94028571Y-53978571D01*
X93814285Y-54050000D01*
X93742857Y-54121428D01*
X92671428Y-53978571D02*
X92671428Y-55050000D01*
X92742857Y-55264285D01*
X92885714Y-55407142D01*
X93100000Y-55478571D01*
X93242857Y-55478571D01*
X91242857Y-55478571D02*
X91957142Y-55478571D01*
X91957142Y-53978571D01*
X89885714Y-55335714D02*
X89957142Y-55407142D01*
X90171428Y-55478571D01*
X90314285Y-55478571D01*
X90528571Y-55407142D01*
X90671428Y-55264285D01*
X90742857Y-55121428D01*
X90814285Y-54835714D01*
X90814285Y-54621428D01*
X90742857Y-54335714D01*
X90671428Y-54192857D01*
X90528571Y-54050000D01*
X90314285Y-53978571D01*
X90171428Y-53978571D01*
X89957142Y-54050000D01*
X89885714Y-54121428D01*
X88814285Y-53978571D02*
X88814285Y-55050000D01*
X88885714Y-55264285D01*
X89028571Y-55407142D01*
X89242857Y-55478571D01*
X89385714Y-55478571D01*
X87385714Y-55478571D02*
X88100000Y-55478571D01*
X88100000Y-53978571D01*
X86028571Y-55335714D02*
X86100000Y-55407142D01*
X86314285Y-55478571D01*
X86457142Y-55478571D01*
X86671428Y-55407142D01*
X86814285Y-55264285D01*
X86885714Y-55121428D01*
X86957142Y-54835714D01*
X86957142Y-54621428D01*
X86885714Y-54335714D01*
X86814285Y-54192857D01*
X86671428Y-54050000D01*
X86457142Y-53978571D01*
X86314285Y-53978571D01*
X86100000Y-54050000D01*
X86028571Y-54121428D01*
X84957142Y-53978571D02*
X84957142Y-55050000D01*
X85028571Y-55264285D01*
X85171428Y-55407142D01*
X85385714Y-55478571D01*
X85528571Y-55478571D01*
X83528571Y-55478571D02*
X84242857Y-55478571D01*
X84242857Y-53978571D01*
X82171428Y-55335714D02*
X82242857Y-55407142D01*
X82457142Y-55478571D01*
X82600000Y-55478571D01*
X82814285Y-55407142D01*
X82957142Y-55264285D01*
X83028571Y-55121428D01*
X83100000Y-54835714D01*
X83100000Y-54621428D01*
X83028571Y-54335714D01*
X82957142Y-54192857D01*
X82814285Y-54050000D01*
X82600000Y-53978571D01*
X82457142Y-53978571D01*
X82242857Y-54050000D01*
X82171428Y-54121428D01*
X136844428Y-143606642D02*
X136844428Y-144368547D01*
X137225380Y-143987595D02*
X136463476Y-143987595D01*
X136225380Y-144749500D02*
X136225380Y-145368547D01*
X136606333Y-145035214D01*
X136606333Y-145178071D01*
X136653952Y-145273309D01*
X136701571Y-145320928D01*
X136796809Y-145368547D01*
X137034904Y-145368547D01*
X137130142Y-145320928D01*
X137177761Y-145273309D01*
X137225380Y-145178071D01*
X137225380Y-144892357D01*
X137177761Y-144797119D01*
X137130142Y-144749500D01*
X137130142Y-145797119D02*
X137177761Y-145844738D01*
X137225380Y-145797119D01*
X137177761Y-145749500D01*
X137130142Y-145797119D01*
X137225380Y-145797119D01*
X136225380Y-146178071D02*
X136225380Y-146797119D01*
X136606333Y-146463785D01*
X136606333Y-146606642D01*
X136653952Y-146701880D01*
X136701571Y-146749500D01*
X136796809Y-146797119D01*
X137034904Y-146797119D01*
X137130142Y-146749500D01*
X137177761Y-146701880D01*
X137225380Y-146606642D01*
X137225380Y-146320928D01*
X137177761Y-146225690D01*
X137130142Y-146178071D01*
X136558714Y-147130452D02*
X137225380Y-147368547D01*
X136558714Y-147606642D01*
X137973000Y-145463785D02*
X137925380Y-145368547D01*
X137925380Y-145225690D01*
X137973000Y-145082833D01*
X138068238Y-144987595D01*
X138163476Y-144939976D01*
X138353952Y-144892357D01*
X138496809Y-144892357D01*
X138687285Y-144939976D01*
X138782523Y-144987595D01*
X138877761Y-145082833D01*
X138925380Y-145225690D01*
X138925380Y-145320928D01*
X138877761Y-145463785D01*
X138830142Y-145511404D01*
X138496809Y-145511404D01*
X138496809Y-145320928D01*
X138925380Y-145939976D02*
X137925380Y-145939976D01*
X138925380Y-146511404D01*
X137925380Y-146511404D01*
X138925380Y-146987595D02*
X137925380Y-146987595D01*
X137925380Y-147225690D01*
X137973000Y-147368547D01*
X138068238Y-147463785D01*
X138163476Y-147511404D01*
X138353952Y-147559023D01*
X138496809Y-147559023D01*
X138687285Y-147511404D01*
X138782523Y-147463785D01*
X138877761Y-147368547D01*
X138925380Y-147225690D01*
X138925380Y-146987595D01*
X139673000Y-145463785D02*
X139625380Y-145368547D01*
X139625380Y-145225690D01*
X139673000Y-145082833D01*
X139768238Y-144987595D01*
X139863476Y-144939976D01*
X140053952Y-144892357D01*
X140196809Y-144892357D01*
X140387285Y-144939976D01*
X140482523Y-144987595D01*
X140577761Y-145082833D01*
X140625380Y-145225690D01*
X140625380Y-145320928D01*
X140577761Y-145463785D01*
X140530142Y-145511404D01*
X140196809Y-145511404D01*
X140196809Y-145320928D01*
X140625380Y-145939976D02*
X139625380Y-145939976D01*
X140625380Y-146511404D01*
X139625380Y-146511404D01*
X140625380Y-146987595D02*
X139625380Y-146987595D01*
X139625380Y-147225690D01*
X139673000Y-147368547D01*
X139768238Y-147463785D01*
X139863476Y-147511404D01*
X140053952Y-147559023D01*
X140196809Y-147559023D01*
X140387285Y-147511404D01*
X140482523Y-147463785D01*
X140577761Y-147368547D01*
X140625380Y-147225690D01*
X140625380Y-146987595D01*
X142325380Y-146320928D02*
X141658714Y-146844738D01*
X141658714Y-146320928D02*
X142325380Y-146844738D01*
X143073000Y-145463785D02*
X143025380Y-145368547D01*
X143025380Y-145225690D01*
X143073000Y-145082833D01*
X143168238Y-144987595D01*
X143263476Y-144939976D01*
X143453952Y-144892357D01*
X143596809Y-144892357D01*
X143787285Y-144939976D01*
X143882523Y-144987595D01*
X143977761Y-145082833D01*
X144025380Y-145225690D01*
X144025380Y-145320928D01*
X143977761Y-145463785D01*
X143930142Y-145511404D01*
X143596809Y-145511404D01*
X143596809Y-145320928D01*
X144025380Y-145939976D02*
X143025380Y-145939976D01*
X144025380Y-146511404D01*
X143025380Y-146511404D01*
X144025380Y-146987595D02*
X143025380Y-146987595D01*
X143025380Y-147225690D01*
X143073000Y-147368547D01*
X143168238Y-147463785D01*
X143263476Y-147511404D01*
X143453952Y-147559023D01*
X143596809Y-147559023D01*
X143787285Y-147511404D01*
X143882523Y-147463785D01*
X143977761Y-147368547D01*
X144025380Y-147225690D01*
X144025380Y-146987595D01*
X137177761Y-137595476D02*
X137225380Y-137738333D01*
X137225380Y-137976428D01*
X137177761Y-138071666D01*
X137130142Y-138119285D01*
X137034904Y-138166904D01*
X136939666Y-138166904D01*
X136844428Y-138119285D01*
X136796809Y-138071666D01*
X136749190Y-137976428D01*
X136701571Y-137785952D01*
X136653952Y-137690714D01*
X136606333Y-137643095D01*
X136511095Y-137595476D01*
X136415857Y-137595476D01*
X136320619Y-137643095D01*
X136273000Y-137690714D01*
X136225380Y-137785952D01*
X136225380Y-138024047D01*
X136273000Y-138166904D01*
X136225380Y-138500238D02*
X137225380Y-138738333D01*
X136511095Y-138928809D01*
X137225380Y-139119285D01*
X136225380Y-139357380D01*
X137225380Y-139738333D02*
X136225380Y-139738333D01*
X136225380Y-139976428D01*
X136273000Y-140119285D01*
X136368238Y-140214523D01*
X136463476Y-140262142D01*
X136653952Y-140309761D01*
X136796809Y-140309761D01*
X136987285Y-140262142D01*
X137082523Y-140214523D01*
X137177761Y-140119285D01*
X137225380Y-139976428D01*
X137225380Y-139738333D01*
X137225380Y-140738333D02*
X136225380Y-140738333D01*
X136225380Y-141405000D02*
X136225380Y-141595476D01*
X136273000Y-141690714D01*
X136368238Y-141785952D01*
X136558714Y-141833571D01*
X136892047Y-141833571D01*
X137082523Y-141785952D01*
X137177761Y-141690714D01*
X137225380Y-141595476D01*
X137225380Y-141405000D01*
X137177761Y-141309761D01*
X137082523Y-141214523D01*
X136892047Y-141166904D01*
X136558714Y-141166904D01*
X136368238Y-141214523D01*
X136273000Y-141309761D01*
X136225380Y-141405000D01*
X138877761Y-137595476D02*
X138925380Y-137738333D01*
X138925380Y-137976428D01*
X138877761Y-138071666D01*
X138830142Y-138119285D01*
X138734904Y-138166904D01*
X138639666Y-138166904D01*
X138544428Y-138119285D01*
X138496809Y-138071666D01*
X138449190Y-137976428D01*
X138401571Y-137785952D01*
X138353952Y-137690714D01*
X138306333Y-137643095D01*
X138211095Y-137595476D01*
X138115857Y-137595476D01*
X138020619Y-137643095D01*
X137973000Y-137690714D01*
X137925380Y-137785952D01*
X137925380Y-138024047D01*
X137973000Y-138166904D01*
X137925380Y-138500238D02*
X138925380Y-138738333D01*
X138211095Y-138928809D01*
X138925380Y-139119285D01*
X137925380Y-139357380D01*
X138830142Y-140309761D02*
X138877761Y-140262142D01*
X138925380Y-140119285D01*
X138925380Y-140024047D01*
X138877761Y-139881190D01*
X138782523Y-139785952D01*
X138687285Y-139738333D01*
X138496809Y-139690714D01*
X138353952Y-139690714D01*
X138163476Y-139738333D01*
X138068238Y-139785952D01*
X137973000Y-139881190D01*
X137925380Y-140024047D01*
X137925380Y-140119285D01*
X137973000Y-140262142D01*
X138020619Y-140309761D01*
X138925380Y-141214523D02*
X138925380Y-140738333D01*
X137925380Y-140738333D01*
X138925380Y-141547857D02*
X137925380Y-141547857D01*
X138925380Y-142119285D02*
X138353952Y-141690714D01*
X137925380Y-142119285D02*
X138496809Y-141547857D01*
X140577761Y-137595476D02*
X140625380Y-137738333D01*
X140625380Y-137976428D01*
X140577761Y-138071666D01*
X140530142Y-138119285D01*
X140434904Y-138166904D01*
X140339666Y-138166904D01*
X140244428Y-138119285D01*
X140196809Y-138071666D01*
X140149190Y-137976428D01*
X140101571Y-137785952D01*
X140053952Y-137690714D01*
X140006333Y-137643095D01*
X139911095Y-137595476D01*
X139815857Y-137595476D01*
X139720619Y-137643095D01*
X139673000Y-137690714D01*
X139625380Y-137785952D01*
X139625380Y-138024047D01*
X139673000Y-138166904D01*
X139625380Y-138500238D02*
X140625380Y-138738333D01*
X139911095Y-138928809D01*
X140625380Y-139119285D01*
X139625380Y-139357380D01*
X139625380Y-139928809D02*
X139625380Y-140119285D01*
X139673000Y-140214523D01*
X139768238Y-140309761D01*
X139958714Y-140357380D01*
X140292047Y-140357380D01*
X140482523Y-140309761D01*
X140577761Y-140214523D01*
X140625380Y-140119285D01*
X140625380Y-139928809D01*
X140577761Y-139833571D01*
X140482523Y-139738333D01*
X140292047Y-139690714D01*
X139958714Y-139690714D01*
X139768238Y-139738333D01*
X139673000Y-139833571D01*
X139625380Y-139928809D01*
X142325380Y-139071666D02*
X141658714Y-139595476D01*
X141658714Y-139071666D02*
X142325380Y-139595476D01*
X144025380Y-137643095D02*
X143025380Y-137643095D01*
X144025380Y-138214523D01*
X143025380Y-138214523D01*
X144025380Y-139262142D02*
X143549190Y-138928809D01*
X144025380Y-138690714D02*
X143025380Y-138690714D01*
X143025380Y-139071666D01*
X143073000Y-139166904D01*
X143120619Y-139214523D01*
X143215857Y-139262142D01*
X143358714Y-139262142D01*
X143453952Y-139214523D01*
X143501571Y-139166904D01*
X143549190Y-139071666D01*
X143549190Y-138690714D01*
X143977761Y-139643095D02*
X144025380Y-139785952D01*
X144025380Y-140024047D01*
X143977761Y-140119285D01*
X143930142Y-140166904D01*
X143834904Y-140214523D01*
X143739666Y-140214523D01*
X143644428Y-140166904D01*
X143596809Y-140119285D01*
X143549190Y-140024047D01*
X143501571Y-139833571D01*
X143453952Y-139738333D01*
X143406333Y-139690714D01*
X143311095Y-139643095D01*
X143215857Y-139643095D01*
X143120619Y-139690714D01*
X143073000Y-139738333D01*
X143025380Y-139833571D01*
X143025380Y-140071666D01*
X143073000Y-140214523D01*
X143025380Y-140500238D02*
X143025380Y-141071666D01*
X144025380Y-140785952D02*
X143025380Y-140785952D01*
%LPC*%
D11*
G36*
X89093600Y-110478000D02*
G01*
X80813200Y-110478000D01*
X80813200Y-99302000D01*
X89093600Y-99302000D01*
X89093600Y-110478000D01*
G37*
X89093600Y-110478000D02*
X80813200Y-110478000D01*
X80813200Y-99302000D01*
X89093600Y-99302000D01*
X89093600Y-110478000D01*
D12*
X71850000Y-92700000D03*
X71850000Y-87300000D03*
D13*
X105500000Y-110500001D03*
X105500000Y-107960001D03*
D14*
X105500000Y-105420001D03*
D15*
X156425000Y-146400000D03*
X152425000Y-146400000D03*
D14*
X76546000Y-101080000D03*
D13*
X76546000Y-103620000D03*
X76546000Y-106160000D03*
X76546000Y-108700000D03*
D14*
X127600000Y-94476000D03*
D13*
X127600000Y-97016000D03*
X127600000Y-99556000D03*
X127600000Y-102096000D03*
D14*
X114265000Y-76950000D03*
D13*
X116805000Y-76950000D03*
X114265000Y-79490000D03*
X116805000Y-79490000D03*
X114265000Y-82030000D03*
X116805000Y-82030000D03*
X114265000Y-84570000D03*
X116805000Y-84570000D03*
X114265000Y-87110000D03*
X116805000Y-87110000D03*
X114265000Y-89650000D03*
X116805000Y-89650000D03*
D14*
X143856000Y-66917000D03*
D13*
X143856000Y-69457000D03*
X143856000Y-71997000D03*
X143856000Y-74537000D03*
X143856000Y-77077000D03*
X143856000Y-79617000D03*
X143856000Y-82157000D03*
X143856000Y-84697000D03*
D14*
X149825000Y-71870000D03*
D13*
X149825000Y-74410000D03*
X149825000Y-76950000D03*
X149825000Y-79490000D03*
X149825000Y-82030000D03*
X149825000Y-84570000D03*
D14*
X148275600Y-89345200D03*
D13*
X145735600Y-89345200D03*
D14*
X164049000Y-71997000D03*
D13*
X164049000Y-74537000D03*
X164049000Y-77077000D03*
X164049000Y-79617000D03*
X164049000Y-82157000D03*
X164049000Y-84697000D03*
D14*
X155667000Y-66917000D03*
D13*
X158207000Y-66917000D03*
X155667000Y-69457000D03*
X158207000Y-69457000D03*
X155667000Y-71997000D03*
X158207000Y-71997000D03*
X155667000Y-74537000D03*
X158207000Y-74537000D03*
X155667000Y-77077000D03*
X158207000Y-77077000D03*
X155667000Y-79617000D03*
X158207000Y-79617000D03*
X155667000Y-82157000D03*
X158207000Y-82157000D03*
X155667000Y-84697000D03*
X158207000Y-84697000D03*
D14*
X105806800Y-114745200D03*
D13*
X108346800Y-114745200D03*
X110886800Y-114745200D03*
D14*
X137036100Y-93663200D03*
D13*
X137036100Y-96203200D03*
X137036100Y-98743200D03*
D16*
X165500000Y-54500000D03*
D17*
X167900000Y-54500000D03*
X167197056Y-56197056D03*
X165500000Y-56900000D03*
X163802944Y-56197056D03*
X163100000Y-54500000D03*
X163802944Y-52802944D03*
X165500000Y-52100000D03*
X167197056Y-52802944D03*
D16*
X74500000Y-54500000D03*
D17*
X76900000Y-54500000D03*
X76197056Y-56197056D03*
X74500000Y-56900000D03*
X72802944Y-56197056D03*
X72100000Y-54500000D03*
X72802944Y-52802944D03*
X74500000Y-52100000D03*
X76197056Y-52802944D03*
D16*
X165500000Y-145500000D03*
D17*
X167900000Y-145500000D03*
X167197056Y-147197056D03*
X165500000Y-147900000D03*
X163802944Y-147197056D03*
X163100000Y-145500000D03*
X163802944Y-143802944D03*
X165500000Y-143100000D03*
X167197056Y-143802944D03*
D16*
X74500000Y-145500000D03*
D17*
X76900000Y-145500000D03*
X76197056Y-147197056D03*
X74500000Y-147900000D03*
X72802944Y-147197056D03*
X72100000Y-145500000D03*
X72802944Y-143802944D03*
X74500000Y-143100000D03*
X76197056Y-143802944D03*
D12*
X71820000Y-73650000D03*
X71820000Y-79050000D03*
X71872400Y-130104600D03*
X71872400Y-135504600D03*
D18*
X125570000Y-123600000D03*
D19*
X124300000Y-123600000D03*
X127600000Y-127700000D03*
D18*
X127600000Y-128970000D03*
M02*
