G04 #@! TF.GenerationSoftware,KiCad,Pcbnew,(5.1.8)-1*
G04 #@! TF.CreationDate,2021-09-06T17:51:37-03:00*
G04 #@! TF.ProjectId,Proyecto_Final,50726f79-6563-4746-9f5f-46696e616c2e,rev?*
G04 #@! TF.SameCoordinates,Original*
G04 #@! TF.FileFunction,Soldermask,Bot*
G04 #@! TF.FilePolarity,Negative*
%FSLAX46Y46*%
G04 Gerber Fmt 4.6, Leading zero omitted, Abs format (unit mm)*
G04 Created by KiCad (PCBNEW (5.1.8)-1) date 2021-09-06 17:51:37*
%MOMM*%
%LPD*%
G01*
G04 APERTURE LIST*
%ADD10C,0.100000*%
%ADD11R,3.500000X1.500000*%
%ADD12O,1.700000X1.700000*%
%ADD13R,1.700000X1.700000*%
%ADD14C,0.550000*%
%ADD15C,6.400000*%
%ADD16C,0.800000*%
%ADD17O,1.000000X1.000000*%
%ADD18R,1.000000X1.000000*%
G04 APERTURE END LIST*
D10*
G36*
X89093600Y-110478000D02*
G01*
X80813200Y-110478000D01*
X80813200Y-99302000D01*
X89093600Y-99302000D01*
X89093600Y-110478000D01*
G37*
X89093600Y-110478000D02*
X80813200Y-110478000D01*
X80813200Y-99302000D01*
X89093600Y-99302000D01*
X89093600Y-110478000D01*
D11*
X71850000Y-92700000D03*
X71850000Y-87300000D03*
D12*
X105500000Y-110500001D03*
X105500000Y-107960001D03*
D13*
X105500000Y-105420001D03*
D14*
X156425000Y-146400000D03*
X152425000Y-146400000D03*
D13*
X76546000Y-101080000D03*
D12*
X76546000Y-103620000D03*
X76546000Y-106160000D03*
X76546000Y-108700000D03*
D13*
X127600000Y-94476000D03*
D12*
X127600000Y-97016000D03*
X127600000Y-99556000D03*
X127600000Y-102096000D03*
D13*
X114265000Y-76950000D03*
D12*
X116805000Y-76950000D03*
X114265000Y-79490000D03*
X116805000Y-79490000D03*
X114265000Y-82030000D03*
X116805000Y-82030000D03*
X114265000Y-84570000D03*
X116805000Y-84570000D03*
X114265000Y-87110000D03*
X116805000Y-87110000D03*
X114265000Y-89650000D03*
X116805000Y-89650000D03*
D13*
X143856000Y-66917000D03*
D12*
X143856000Y-69457000D03*
X143856000Y-71997000D03*
X143856000Y-74537000D03*
X143856000Y-77077000D03*
X143856000Y-79617000D03*
X143856000Y-82157000D03*
X143856000Y-84697000D03*
D13*
X149825000Y-71870000D03*
D12*
X149825000Y-74410000D03*
X149825000Y-76950000D03*
X149825000Y-79490000D03*
X149825000Y-82030000D03*
X149825000Y-84570000D03*
D13*
X148275600Y-89345200D03*
D12*
X145735600Y-89345200D03*
D13*
X164049000Y-71997000D03*
D12*
X164049000Y-74537000D03*
X164049000Y-77077000D03*
X164049000Y-79617000D03*
X164049000Y-82157000D03*
X164049000Y-84697000D03*
D13*
X155667000Y-66917000D03*
D12*
X158207000Y-66917000D03*
X155667000Y-69457000D03*
X158207000Y-69457000D03*
X155667000Y-71997000D03*
X158207000Y-71997000D03*
X155667000Y-74537000D03*
X158207000Y-74537000D03*
X155667000Y-77077000D03*
X158207000Y-77077000D03*
X155667000Y-79617000D03*
X158207000Y-79617000D03*
X155667000Y-82157000D03*
X158207000Y-82157000D03*
X155667000Y-84697000D03*
X158207000Y-84697000D03*
D13*
X105806800Y-114745200D03*
D12*
X108346800Y-114745200D03*
X110886800Y-114745200D03*
D13*
X137036100Y-93663200D03*
D12*
X137036100Y-96203200D03*
X137036100Y-98743200D03*
D15*
X165500000Y-54500000D03*
D16*
X167900000Y-54500000D03*
X167197056Y-56197056D03*
X165500000Y-56900000D03*
X163802944Y-56197056D03*
X163100000Y-54500000D03*
X163802944Y-52802944D03*
X165500000Y-52100000D03*
X167197056Y-52802944D03*
D15*
X74500000Y-54500000D03*
D16*
X76900000Y-54500000D03*
X76197056Y-56197056D03*
X74500000Y-56900000D03*
X72802944Y-56197056D03*
X72100000Y-54500000D03*
X72802944Y-52802944D03*
X74500000Y-52100000D03*
X76197056Y-52802944D03*
D15*
X165500000Y-145500000D03*
D16*
X167900000Y-145500000D03*
X167197056Y-147197056D03*
X165500000Y-147900000D03*
X163802944Y-147197056D03*
X163100000Y-145500000D03*
X163802944Y-143802944D03*
X165500000Y-143100000D03*
X167197056Y-143802944D03*
D15*
X74500000Y-145500000D03*
D16*
X76900000Y-145500000D03*
X76197056Y-147197056D03*
X74500000Y-147900000D03*
X72802944Y-147197056D03*
X72100000Y-145500000D03*
X72802944Y-143802944D03*
X74500000Y-143100000D03*
X76197056Y-143802944D03*
D11*
X71820000Y-73650000D03*
X71820000Y-79050000D03*
X71872400Y-130104600D03*
X71872400Y-135504600D03*
D17*
X125570000Y-123600000D03*
D18*
X124300000Y-123600000D03*
X127600000Y-127700000D03*
D17*
X127600000Y-128970000D03*
M02*
