<?xml version="1.0" standalone="no"?>
 <!DOCTYPE svg PUBLIC "-//W3C//DTD SVG 1.1//EN" 
 "http://www.w3.org/Graphics/SVG/1.1/DTD/svg11.dtd"> 
<svg
  xmlns:svg="http://www.w3.org/2000/svg"
  xmlns="http://www.w3.org/2000/svg"
  xmlns:xlink="http://www.w3.org/1999/xlink"
  version="1.1"
  width="11.209020cm" height="10.205720cm" viewBox="0 0 44130 40180">
<title>SVG Picture created as Proyecto_Final-B_SilkS.svg date 2021/08/18 19:46:15 </title>
  <desc>Picture generated by PCBNEW </desc>
<g style="fill:#000000; fill-opacity:1;stroke:#000000; stroke-opacity:1;
stroke-linecap:round; stroke-linejoin:round;"
 transform="translate(0 0) scale(1 1)">
</g>
<g style="fill:#000000; fill-opacity:0.0; 
stroke:#000000; stroke-width:-0.000393701; stroke-opacity:1; 
stroke-linecap:round; stroke-linejoin:round;">
</g>
<g style="fill:#000000; fill-opacity:0.0; 
stroke:#000000; stroke-width:78.7402; stroke-opacity:1; 
stroke-linecap:round; stroke-linejoin:round;">
<text x="11545.3" y="2365.16"
transform="scale(-1 1) translate(-23090.551969 0)"
textLength="5971.88" font-size="787.402" lengthAdjust="spacingAndGlyphs"
text-anchor="middle" opacity="0">JLCJLCJLCJLC</text>
<path d="M14273 1746
L14273 2168
L14301 2252
L14357 2308
L14441 2337
L14498 2337
" />
<path d="M13710 2337
L13991 2337
L13991 1746
" />
<path d="M13176 2280
L13204 2308
L13288 2337
L13345 2337
L13429 2308
L13485 2252
L13513 2196
L13541 2083
L13541 1999
L13513 1887
L13485 1830
L13429 1774
L13345 1746
L13288 1746
L13204 1774
L13176 1802
" />
<path d="M12754 1746
L12754 2168
L12782 2252
L12838 2308
L12923 2337
L12979 2337
" />
<path d="M12192 2337
L12473 2337
L12473 1746
" />
<path d="M11657 2280
L11685 2308
L11770 2337
L11826 2337
L11910 2308
L11967 2252
L11995 2196
L12023 2083
L12023 1999
L11995 1887
L11967 1830
L11910 1774
L11826 1746
L11770 1746
L11685 1774
L11657 1802
" />
<path d="M11235 1746
L11235 2168
L11264 2252
L11320 2308
L11404 2337
L11460 2337
" />
<path d="M10673 2337
L10954 2337
L10954 1746
" />
<path d="M10139 2280
L10167 2308
L10251 2337
L10307 2337
L10392 2308
L10448 2252
L10476 2196
L10504 2083
L10504 1999
L10476 1887
L10448 1830
L10392 1774
L10307 1746
L10251 1746
L10167 1774
L10139 1802
" />
<path d="M9717 1746
L9717 2168
L9745 2252
L9801 2308
L9886 2337
L9942 2337
" />
<path d="M9154 2337
L9436 2337
L9436 1746
" />
<path d="M8620 2280
L8648 2308
L8733 2337
L8789 2337
L8873 2308
L8929 2252
L8958 2196
L8986 2083
L8986 1999
L8958 1887
L8929 1830
L8873 1774
L8789 1746
L8733 1746
L8648 1774
L8620 1802
" />
<g transform="rotate(-90 30117.3 38715.4)">
<text x="30117.3" y="38912.2"
transform="scale(-1 1) translate(-60234.646457 0)"
textLength="1622.42" font-size="524.934" lengthAdjust="spacingAndGlyphs"
text-anchor="end" opacity="0">+3.3v</text>
</g>
<path d="M30145 37033
L30145 37333
" />
<path d="M30295 37183
L29995 37183
" />
<path d="M29901 37483
L29901 37726
L30051 37595
L30051 37651
L30070 37689
L30089 37708
L30126 37726
L30220 37726
L30257 37708
L30276 37689
L30295 37651
L30295 37539
L30276 37501
L30257 37483
" />
<path d="M30257 37895
L30276 37914
L30295 37895
L30276 37876
L30257 37895
L30295 37895
" />
<path d="M29901 38045
L29901 38289
L30051 38157
L30051 38214
L30070 38251
L30089 38270
L30126 38289
L30220 38289
L30257 38270
L30276 38251
L30295 38214
L30295 38101
L30276 38064
L30257 38045
" />
<path d="M30032 38420
L30295 38514
L30032 38607
" />
<g transform="rotate(-90 30786.6 38715.4)">
<text x="30786.6" y="38912.2"
transform="scale(-1 1) translate(-61573.229134 0)"
textLength="1097.49" font-size="524.934" lengthAdjust="spacingAndGlyphs"
text-anchor="end" opacity="0">GND</text>
</g>
<path d="M30589 37764
L30571 37726
L30571 37670
L30589 37614
L30627 37576
L30664 37558
L30739 37539
L30795 37539
L30870 37558
L30908 37576
L30945 37614
L30964 37670
L30964 37708
L30945 37764
L30927 37783
L30795 37783
L30795 37708
" />
<path d="M30964 37951
L30571 37951
L30964 38176
L30571 38176
" />
<path d="M30964 38364
L30571 38364
L30571 38457
L30589 38514
L30627 38551
L30664 38570
L30739 38589
L30795 38589
L30870 38570
L30908 38551
L30945 38514
L30964 38457
L30964 38364
" />
<g transform="rotate(-90 31455.9 38715.4)">
<text x="31455.9" y="38912.2"
transform="scale(-1 1) translate(-62911.811811 0)"
textLength="1097.49" font-size="524.934" lengthAdjust="spacingAndGlyphs"
text-anchor="end" opacity="0">GND</text>
</g>
<path d="M31259 37764
L31240 37726
L31240 37670
L31259 37614
L31296 37576
L31334 37558
L31409 37539
L31465 37539
L31540 37558
L31577 37576
L31615 37614
L31634 37670
L31634 37708
L31615 37764
L31596 37783
L31465 37783
L31465 37708
" />
<path d="M31634 37951
L31240 37951
L31634 38176
L31240 38176
" />
<path d="M31634 38364
L31240 38364
L31240 38457
L31259 38514
L31296 38551
L31334 38570
L31409 38589
L31465 38589
L31540 38570
L31577 38551
L31615 38514
L31634 38457
L31634 38364
" />
<g transform="rotate(-90 32125.2 38715.4)">
<text x="32125.2" y="38912.2"
transform="scale(-1 1) translate(-64250.394488 0)"
textLength="516.311" font-size="524.934" lengthAdjust="spacingAndGlyphs"
text-anchor="end" opacity="0">x </text>
</g>
<path d="M32303 38101
L32040 38307
" />
<path d="M32040 38101
L32303 38307
" />
<g transform="rotate(-90 32794.5 38715.4)">
<text x="32794.5" y="38912.2"
transform="scale(-1 1) translate(-65588.977165 0)"
textLength="1097.49" font-size="524.934" lengthAdjust="spacingAndGlyphs"
text-anchor="end" opacity="0">GND</text>
</g>
<path d="M32597 37764
L32578 37726
L32578 37670
L32597 37614
L32635 37576
L32672 37558
L32747 37539
L32803 37539
L32878 37558
L32916 37576
L32953 37614
L32972 37670
L32972 37708
L32953 37764
L32935 37783
L32803 37783
L32803 37708
" />
<path d="M32972 37951
L32578 37951
L32972 38176
L32578 38176
" />
<path d="M32972 38364
L32578 38364
L32578 38457
L32597 38514
L32635 38551
L32672 38570
L32747 38589
L32803 38589
L32878 38570
L32916 38551
L32953 38514
L32972 38457
L32972 38364
" />
<g transform="rotate(-90 30117.3 34540.4)">
<text x="30117.3" y="34737.2"
transform="scale(-1 1) translate(-60234.646457 0)"
textLength="1716.16" font-size="524.934" lengthAdjust="spacingAndGlyphs"
text-anchor="start" opacity="0">SWDIO</text>
</g>
<path d="M30276 34666
L30295 34722
L30295 34816
L30276 34854
L30257 34872
L30220 34891
L30182 34891
L30145 34872
L30126 34854
L30107 34816
L30089 34741
L30070 34704
L30051 34685
L30014 34666
L29976 34666
L29939 34685
L29920 34704
L29901 34741
L29901 34835
L29920 34891
" />
<path d="M29901 35022
L30295 35116
L30014 35191
L30295 35266
L29901 35360
" />
<path d="M30295 35510
L29901 35510
L29901 35603
L29920 35660
L29957 35697
L29995 35716
L30070 35735
L30126 35735
L30201 35716
L30239 35697
L30276 35660
L30295 35603
L30295 35510
" />
<path d="M30295 35903
L29901 35903
" />
<path d="M29901 36166
L29901 36241
L29920 36278
L29957 36316
L30032 36335
L30164 36335
L30239 36316
L30276 36278
L30295 36241
L30295 36166
L30276 36128
L30239 36091
L30164 36072
L30032 36072
L29957 36091
L29920 36128
L29901 36166
" />
<g transform="rotate(-90 30786.6 34540.4)">
<text x="30786.6" y="34737.2"
transform="scale(-1 1) translate(-61573.229134 0)"
textLength="1828.65" font-size="524.934" lengthAdjust="spacingAndGlyphs"
text-anchor="start" opacity="0">SWCLK</text>
</g>
<path d="M30945 34666
L30964 34722
L30964 34816
L30945 34854
L30927 34872
L30889 34891
L30852 34891
L30814 34872
L30795 34854
L30777 34816
L30758 34741
L30739 34704
L30720 34685
L30683 34666
L30646 34666
L30608 34685
L30589 34704
L30571 34741
L30571 34835
L30589 34891
" />
<path d="M30571 35022
L30964 35116
L30683 35191
L30964 35266
L30571 35360
" />
<path d="M30927 35735
L30945 35716
L30964 35660
L30964 35622
L30945 35566
L30908 35528
L30870 35510
L30795 35491
L30739 35491
L30664 35510
L30627 35528
L30589 35566
L30571 35622
L30571 35660
L30589 35716
L30608 35735
" />
<path d="M30964 36091
L30964 35903
L30571 35903
" />
<path d="M30964 36222
L30571 36222
" />
<path d="M30964 36447
L30739 36278
" />
<path d="M30571 36447
L30795 36222
" />
<g transform="rotate(-90 31455.9 34540.4)">
<text x="31455.9" y="34737.2"
transform="scale(-1 1) translate(-62911.811811 0)"
textLength="1134.98" font-size="524.934" lengthAdjust="spacingAndGlyphs"
text-anchor="start" opacity="0">SWO</text>
</g>
<path d="M31615 34666
L31634 34722
L31634 34816
L31615 34854
L31596 34872
L31559 34891
L31521 34891
L31484 34872
L31465 34854
L31446 34816
L31427 34741
L31409 34704
L31390 34685
L31352 34666
L31315 34666
L31277 34685
L31259 34704
L31240 34741
L31240 34835
L31259 34891
" />
<path d="M31240 35022
L31634 35116
L31352 35191
L31634 35266
L31240 35360
" />
<path d="M31240 35585
L31240 35660
L31259 35697
L31296 35735
L31371 35753
L31502 35753
L31577 35735
L31615 35697
L31634 35660
L31634 35585
L31615 35547
L31577 35510
L31502 35491
L31371 35491
L31296 35510
L31259 35547
L31240 35585
" />
<g transform="rotate(-90 32125.2 34540.4)">
<text x="32125.2" y="34737.2"
transform="scale(-1 1) translate(-64250.394488 0)"
textLength="816.273" font-size="524.934" lengthAdjust="spacingAndGlyphs"
text-anchor="start" opacity="0">  x</text>
</g>
<path d="M32303 35247
L32040 35453
" />
<path d="M32040 35247
L32303 35453
" />
<g transform="rotate(-90 32794.5 34540.4)">
<text x="32794.5" y="34737.2"
transform="scale(-1 1) translate(-65588.977165 0)"
textLength="1378.7" font-size="524.934" lengthAdjust="spacingAndGlyphs"
text-anchor="start" opacity="0">NRST</text>
</g>
<path d="M32972 34685
L32578 34685
L32972 34910
L32578 34910
" />
<path d="M32972 35322
L32785 35191
" />
<path d="M32972 35097
L32578 35097
L32578 35247
L32597 35285
L32616 35303
L32653 35322
L32710 35322
L32747 35303
L32766 35285
L32785 35247
L32785 35097
" />
<path d="M32953 35472
L32972 35528
L32972 35622
L32953 35660
L32935 35678
L32897 35697
L32860 35697
L32822 35678
L32803 35660
L32785 35622
L32766 35547
L32747 35510
L32728 35491
L32691 35472
L32653 35472
L32616 35491
L32597 35510
L32578 35547
L32578 35641
L32597 35697
" />
<path d="M32578 35810
L32578 36035
" />
<path d="M32972 35922
L32578 35922
" />
<g >
</g>
</g> 
</svg>
