<?xml version="1.0" standalone="no"?>
 <!DOCTYPE svg PUBLIC "-//W3C//DTD SVG 1.1//EN" 
 "http://www.w3.org/Graphics/SVG/1.1/DTD/svg11.dtd"> 
<svg
  xmlns:svg="http://www.w3.org/2000/svg"
  xmlns="http://www.w3.org/2000/svg"
  xmlns:xlink="http://www.w3.org/1999/xlink"
  version="1.1"
  width="11.219180cm" height="10.205720cm" viewBox="0 0 44170 40180">
<title>SVG Picture created as Proyecto_Final-B_SilkS.svg date 2021/05/20 17:06:12 </title>
  <desc>Picture generated by PCBNEW </desc>
<g style="fill:#000000; fill-opacity:1;stroke:#000000; stroke-opacity:1;
stroke-linecap:round; stroke-linejoin:round;"
 transform="translate(0 0) scale(1 1)">
</g>
<g style="fill:#000000; fill-opacity:0.0; 
stroke:#000000; stroke-width:-0.000393701; stroke-opacity:1; 
stroke-linecap:round; stroke-linejoin:round;">
</g>
<g style="fill:#000000; fill-opacity:0.0; 
stroke:#000000; stroke-width:78.7402; stroke-opacity:1; 
stroke-linecap:round; stroke-linejoin:round;">
<g transform="rotate(-90 30156.7 38715.4)">
<text x="30156.7" y="38912.2"
transform="scale(-1 1) translate(-60313.386614 0)"
textLength="1622.42" font-size="524.934" lengthAdjust="spacingAndGlyphs"
text-anchor="end" opacity="0">+3.3v</text>
</g>
<path d="M30184 37033
L30184 37333
" />
<path d="M30334 37183
L30034 37183
" />
<path d="M29941 37483
L29941 37726
L30091 37595
L30091 37651
L30109 37689
L30128 37708
L30166 37726
L30259 37726
L30297 37708
L30316 37689
L30334 37651
L30334 37539
L30316 37501
L30297 37483
" />
<path d="M30297 37895
L30316 37914
L30334 37895
L30316 37876
L30297 37895
L30334 37895
" />
<path d="M29941 38045
L29941 38289
L30091 38157
L30091 38214
L30109 38251
L30128 38270
L30166 38289
L30259 38289
L30297 38270
L30316 38251
L30334 38214
L30334 38101
L30316 38064
L30297 38045
" />
<path d="M30072 38420
L30334 38514
L30072 38607
" />
<g transform="rotate(-90 30826 38715.4)">
<text x="30826" y="38912.2"
transform="scale(-1 1) translate(-61651.969291 0)"
textLength="1097.49" font-size="524.934" lengthAdjust="spacingAndGlyphs"
text-anchor="end" opacity="0">GND</text>
</g>
<path d="M30629 37764
L30610 37726
L30610 37670
L30629 37614
L30666 37576
L30704 37558
L30779 37539
L30835 37539
L30910 37558
L30947 37576
L30985 37614
L31004 37670
L31004 37708
L30985 37764
L30966 37783
L30835 37783
L30835 37708
" />
<path d="M31004 37951
L30610 37951
L31004 38176
L30610 38176
" />
<path d="M31004 38364
L30610 38364
L30610 38457
L30629 38514
L30666 38551
L30704 38570
L30779 38589
L30835 38589
L30910 38570
L30947 38551
L30985 38514
L31004 38457
L31004 38364
" />
<g transform="rotate(-90 31495.3 38715.4)">
<text x="31495.3" y="38912.2"
transform="scale(-1 1) translate(-62990.551969 0)"
textLength="1097.49" font-size="524.934" lengthAdjust="spacingAndGlyphs"
text-anchor="end" opacity="0">GND</text>
</g>
<path d="M31298 37764
L31279 37726
L31279 37670
L31298 37614
L31335 37576
L31373 37558
L31448 37539
L31504 37539
L31579 37558
L31617 37576
L31654 37614
L31673 37670
L31673 37708
L31654 37764
L31635 37783
L31504 37783
L31504 37708
" />
<path d="M31673 37951
L31279 37951
L31673 38176
L31279 38176
" />
<path d="M31673 38364
L31279 38364
L31279 38457
L31298 38514
L31335 38551
L31373 38570
L31448 38589
L31504 38589
L31579 38570
L31617 38551
L31654 38514
L31673 38457
L31673 38364
" />
<g transform="rotate(-90 32164.6 38715.4)">
<text x="32164.6" y="38912.2"
transform="scale(-1 1) translate(-64329.134646 0)"
textLength="516.311" font-size="524.934" lengthAdjust="spacingAndGlyphs"
text-anchor="end" opacity="0">x </text>
</g>
<path d="M32342 38101
L32080 38307
" />
<path d="M32080 38101
L32342 38307
" />
<g transform="rotate(-90 32833.9 38715.4)">
<text x="32833.9" y="38912.2"
transform="scale(-1 1) translate(-65667.717323 0)"
textLength="1097.49" font-size="524.934" lengthAdjust="spacingAndGlyphs"
text-anchor="end" opacity="0">GND</text>
</g>
<path d="M32637 37764
L32618 37726
L32618 37670
L32637 37614
L32674 37576
L32711 37558
L32786 37539
L32843 37539
L32918 37558
L32955 37576
L32993 37614
L33011 37670
L33011 37708
L32993 37764
L32974 37783
L32843 37783
L32843 37708
" />
<path d="M33011 37951
L32618 37951
L33011 38176
L32618 38176
" />
<path d="M33011 38364
L32618 38364
L32618 38457
L32637 38514
L32674 38551
L32711 38570
L32786 38589
L32843 38589
L32918 38570
L32955 38551
L32993 38514
L33011 38457
L33011 38364
" />
<g transform="rotate(-90 30156.7 34540.4)">
<text x="30156.7" y="34737.2"
transform="scale(-1 1) translate(-60313.386614 0)"
textLength="1716.16" font-size="524.934" lengthAdjust="spacingAndGlyphs"
text-anchor="start" opacity="0">SWDIO</text>
</g>
<path d="M30316 34666
L30334 34722
L30334 34816
L30316 34854
L30297 34872
L30259 34891
L30222 34891
L30184 34872
L30166 34854
L30147 34816
L30128 34741
L30109 34704
L30091 34685
L30053 34666
L30016 34666
L29978 34685
L29959 34704
L29941 34741
L29941 34835
L29959 34891
" />
<path d="M29941 35022
L30334 35116
L30053 35191
L30334 35266
L29941 35360
" />
<path d="M30334 35510
L29941 35510
L29941 35603
L29959 35660
L29997 35697
L30034 35716
L30109 35735
L30166 35735
L30241 35716
L30278 35697
L30316 35660
L30334 35603
L30334 35510
" />
<path d="M30334 35903
L29941 35903
" />
<path d="M29941 36166
L29941 36241
L29959 36278
L29997 36316
L30072 36335
L30203 36335
L30278 36316
L30316 36278
L30334 36241
L30334 36166
L30316 36128
L30278 36091
L30203 36072
L30072 36072
L29997 36091
L29959 36128
L29941 36166
" />
<g transform="rotate(-90 30826 34540.4)">
<text x="30826" y="34737.2"
transform="scale(-1 1) translate(-61651.969291 0)"
textLength="1828.65" font-size="524.934" lengthAdjust="spacingAndGlyphs"
text-anchor="start" opacity="0">SWCLK</text>
</g>
<path d="M30985 34666
L31004 34722
L31004 34816
L30985 34854
L30966 34872
L30929 34891
L30891 34891
L30854 34872
L30835 34854
L30816 34816
L30797 34741
L30779 34704
L30760 34685
L30722 34666
L30685 34666
L30647 34685
L30629 34704
L30610 34741
L30610 34835
L30629 34891
" />
<path d="M30610 35022
L31004 35116
L30722 35191
L31004 35266
L30610 35360
" />
<path d="M30966 35735
L30985 35716
L31004 35660
L31004 35622
L30985 35566
L30947 35528
L30910 35510
L30835 35491
L30779 35491
L30704 35510
L30666 35528
L30629 35566
L30610 35622
L30610 35660
L30629 35716
L30647 35735
" />
<path d="M31004 36091
L31004 35903
L30610 35903
" />
<path d="M31004 36222
L30610 36222
" />
<path d="M31004 36447
L30779 36278
" />
<path d="M30610 36447
L30835 36222
" />
<g transform="rotate(-90 31495.3 34540.4)">
<text x="31495.3" y="34737.2"
transform="scale(-1 1) translate(-62990.551969 0)"
textLength="1134.98" font-size="524.934" lengthAdjust="spacingAndGlyphs"
text-anchor="start" opacity="0">SWO</text>
</g>
<path d="M31654 34666
L31673 34722
L31673 34816
L31654 34854
L31635 34872
L31598 34891
L31560 34891
L31523 34872
L31504 34854
L31485 34816
L31467 34741
L31448 34704
L31429 34685
L31392 34666
L31354 34666
L31317 34685
L31298 34704
L31279 34741
L31279 34835
L31298 34891
" />
<path d="M31279 35022
L31673 35116
L31392 35191
L31673 35266
L31279 35360
" />
<path d="M31279 35585
L31279 35660
L31298 35697
L31335 35735
L31410 35753
L31542 35753
L31617 35735
L31654 35697
L31673 35660
L31673 35585
L31654 35547
L31617 35510
L31542 35491
L31410 35491
L31335 35510
L31298 35547
L31279 35585
" />
<g transform="rotate(-90 32164.6 34540.4)">
<text x="32164.6" y="34737.2"
transform="scale(-1 1) translate(-64329.134646 0)"
textLength="816.273" font-size="524.934" lengthAdjust="spacingAndGlyphs"
text-anchor="start" opacity="0">  x</text>
</g>
<path d="M32342 35247
L32080 35453
" />
<path d="M32080 35247
L32342 35453
" />
<g transform="rotate(-90 32833.9 34540.4)">
<text x="32833.9" y="34737.2"
transform="scale(-1 1) translate(-65667.717323 0)"
textLength="1378.7" font-size="524.934" lengthAdjust="spacingAndGlyphs"
text-anchor="start" opacity="0">NRST</text>
</g>
<path d="M33011 34685
L32618 34685
L33011 34910
L32618 34910
" />
<path d="M33011 35322
L32824 35191
" />
<path d="M33011 35097
L32618 35097
L32618 35247
L32637 35285
L32655 35303
L32693 35322
L32749 35322
L32786 35303
L32805 35285
L32824 35247
L32824 35097
" />
<path d="M32993 35472
L33011 35528
L33011 35622
L32993 35660
L32974 35678
L32936 35697
L32899 35697
L32861 35678
L32843 35660
L32824 35622
L32805 35547
L32786 35510
L32768 35491
L32730 35472
L32693 35472
L32655 35491
L32637 35510
L32618 35547
L32618 35641
L32637 35697
" />
<path d="M32618 35810
L32618 36035
" />
<path d="M33011 35922
L32618 35922
" />
<g >
</g>
</g> 
</svg>
